<svg xmlns:xlink="http://www.w3.org/1999/xlink" width="24" height="24" viewBox="0 0 24 24"><defs><path id="a" d="M6.857 0c-2.849 0-5.143 2.294-5.143 5.143v.857c-.944 0-1.714.77-1.714 1.714v8.571c0 .944.77 1.714 1.714 1.714h10.286c.944 0 1.714-.77 1.714-1.714v-8.571c0-.944-.77-1.714-1.714-1.714v-.857c0-2.849-2.294-5.143-5.143-5.143zm0 1.714c1.952 0 3.429 1.477 3.429 3.429v.857h-6.857v-.857c0-1.952 1.477-3.429 3.429-3.429zm0 8.571c.944 0 1.714.77 1.714 1.714s-.77 1.714-1.714 1.714-1.714-.77-1.714-1.714.77-1.714 1.714-1.714z"/></defs><g transform="translate(5 3)" fill="none"><mask><use xlink:href="#a"/></mask><use fill="#000" fill-rule="nonzero" xlink:href="#a"/></g></svg>