<svg xmlns="http://www.w3.org/2000/svg" xmlns:xlink="http://www.w3.org/1999/xlink" width="24" height="15" viewBox="0 0 24 15">
  <defs>
    <path id="a" d="M0,14.4705882 L7.83686841e-16,1.05882353 C7.83686841e-16,1.05882353 0.352941176,-1.32910197e-15 1.41176471,0 C2.47058824,8.86068012e-16 2.82352941,1.05882353 2.82352941,1.05882353 L2.82352941,9.17647059 L23.6500496,9.17647059 L23.6500496,14.4705891 L20.8235294,14.4705891 L20.8235294,11.6470588 L2.82352941,11.6470588 L2.82352941,14.4705882 L0,14.4705882 Z M6,5.29411765 C4.83045582,5.29411765 3.88235294,4.34601476 3.88235294,3.17647059 C3.88235294,2.00692641 4.83045582,1.05882353 6,1.05882353 C7.16954418,1.05882353 8.11764706,2.00692641 8.11764706,3.17647059 C8.11764706,4.34601476 7.16954418,5.29411765 6,5.29411765 Z M4.23529412,8.11430202 C2.8235294,8.11095698 2.82352939,5.64705882 4.23529413,5.64705882 C5.64705887,5.64705882 8.71596203,5.67652102 9.17342396,5.69904734 C9.17037733,3.6333888 9.17293347,5.29954979 9.17293347,5.29954979 C9.17488697,3.73715747 10.4353263,2.47058824 12.0008976,2.47058824 L20.8226319,2.47058824 C22.3825198,2.47058824 23.6470588,3.73789846 23.6470588,5.29411765 L23.6470588,8.11764706 L10.2352941,8.11764706 C10.2352941,8.11764706 5.64705884,8.11764706 4.23529412,8.11430202 Z"/>
  </defs>
  <g fill="none" fill-rule="evenodd">
    <use fill="#000000" xlink:href="#a"/>
  </g>
</svg>
