<svg xmlns="http://www.w3.org/2000/svg" xmlns:xlink="http://www.w3.org/1999/xlink" width="17" height="24" viewBox="0 0 17 24">
  <defs>
    <path id="a" d="M14.1366308,17.8383937 L2.52546523,17.8383937 C1.13075416,17.8383937 0,16.6978452 0,15.2908913 L0,2.54750245 C0,1.14054848 1.13075416,0 2.52546523,0 L14.1366308,0 C15.5308521,0 16.6616063,1.14054848 16.6616063,2.54750245 L16.6616063,15.2908913 C16.6616063,16.6978452 15.5308521,17.8383937 14.1366308,17.8383937 L14.1366308,17.8383937 Z M13.2717924,16.3085211 C14.2370225,16.3085211 15.0186092,15.5195886 15.0186092,14.5460333 C15.0186092,13.572478 14.2370225,12.7835455 13.2717924,12.7835455 C12.3070519,12.7835455 11.5249755,13.572478 11.5249755,14.5460333 C11.5249755,15.5195886 12.3070519,16.3085211 13.2717924,16.3085211 L13.2717924,16.3085211 Z M3.15426053,16.1851126 C4.09696376,16.1851126 4.86092067,15.4142997 4.86092067,14.4632713 C4.86092067,13.5122429 4.09696376,12.74143 3.15426053,12.74143 C2.21204701,12.74143 1.44760039,13.5122429 1.44760039,14.4632713 C1.44760039,15.4142997 2.21204701,16.1851126 3.15426053,16.1851126 L3.15426053,16.1851126 Z M9.93829579,1.08227228 L6.73996082,1.08227228 C6.35112635,1.08227228 6.03623898,1.40058766 6.03623898,1.79285015 C6.03623898,2.18511263 6.35112635,2.54750245 6.73996082,2.54750245 L9.93829579,2.54750245 C10.32762,2.54750245 10.6429971,2.18511263 10.6429971,1.79285015 C10.6429971,1.40058766 10.32762,1.08227228 9.93829579,1.08227228 L9.93829579,1.08227228 Z M15.179236,5.14054848 C15.179236,4.29627816 14.5004897,3.61165524 13.6640548,3.61165524 L3.00979432,3.61165524 C2.17335945,3.61165524 1.49510284,4.29627816 1.49510284,5.14054848 L1.49510284,9.76346719 C1.49510284,10.6072478 2.17335945,11.2918707 3.00979432,11.2918707 L13.6640548,11.2918707 C14.5004897,11.2918707 15.179236,10.6072478 15.179236,9.76346719 L15.179236,5.14054848 L15.179236,5.14054848 Z M5.76248776,18.4152791 L5.1194907,20.4764936 L11.9960823,20.4764936 L11.1082272,18.4152791 L13.2806072,18.4152791 L16.5078355,24 L14.2360431,24 L12.4363369,21.463761 L4.20910872,21.463761 L2.81390793,24 L0.503428012,24 L3.81880509,18.4152791 L5.76248776,18.4152791 L5.76248776,18.4152791 Z"/>
  </defs>
  <g fill="none" fill-rule="evenodd">
    <use fill="#000000" xlink:href="#a"/>
  </g>
</svg>
