<svg xmlns="http://www.w3.org/2000/svg" xmlns:xlink="http://www.w3.org/1999/xlink" width="20" height="19" viewBox="0 0 20 19">
  <defs>
    <path id="a" d="M9.07029246,15.3756632 C9.54799059,15.8456183 9.84181095,15.929405 10.0096054,16.2004725 C10.2506149,16.5893008 10.0325301,16.9977155 9.71698531,17.3311697 C8.53582266,18.5802322 4.97001013,19.3025146 3.28990499,19.7900008 C2.88566194,19.9071571 2.53266943,20.1885014 2.23284783,20.5492799 C2.07081455,20.7442986 2.03168651,21.4052825 2,21.6778008 L21.6050675,21.6778008 C21.573501,21.4052825 21.534493,20.7442986 21.3723397,20.5492799 C21.0725181,20.1885014 20.7194056,19.9071571 20.3152825,19.7900008 C18.6351774,19.3025146 15.0693649,18.5802322 13.8880822,17.3311697 C13.5727774,16.9977155 13.3548126,16.5893008 13.5955821,16.2004725 C13.7636166,15.929405 14.057437,15.8456183 14.5351351,15.3756632 C15.113894,14.8063248 14.7817858,15.3449535 14.758741,15.4943913 C14.6523992,16.1858431 16.0026766,15.5096252 16.4400464,15.133371 C17.0003215,14.6515673 16.3856753,15.8377595 18.2650213,14.3798953 C19.5946545,13.3480978 17.7153084,13.8516643 17.3972431,10.9361776 C16.8502907,5.92324274 15.770789,4.57721497 13.9094466,3.48798797 C13.4903205,3.24061774 12.9293252,3.05345786 12.5175206,3.00727241 C11.759805,2.92227667 12.3988162,3.60792506 11.8166967,3.72919209 C11.8117756,3.72822485 11.8073347,3.72713671 11.8027738,3.72592767 C11.7979728,3.72713671 11.7932918,3.72822485 11.7886109,3.72919209 C11.2066113,3.60792506 11.8456226,2.92227667 11.0879069,3.00727241 C10.6758623,3.05345786 10.1151071,3.24061774 9.695981,3.48798797 C7.83439857,4.57721497 6.75513685,5.92324274 6.20818449,10.9361776 C5.89011915,13.8516643 4.01053303,13.3480978 5.34040622,14.3798953 C7.21951225,15.8377595 6.60510603,14.6515673 7.16538113,15.133371 C7.60275098,15.5096252 8.95278832,16.1858431 8.84668652,15.4943913 C8.82364179,15.3449535 8.49153356,14.8063248 9.07029246,15.3756632"/>
  </defs>
  <g fill="none" fill-rule="evenodd" transform="translate(-2 -3)">
    <use fill="#0B0B0B" xlink:href="#a"/>
  </g>
</svg>
