<svg xmlns="http://www.w3.org/2000/svg" xmlns:xlink="http://www.w3.org/1999/xlink" width="18" height="18" viewBox="0 0 18 18">
  <defs>
    <path id="a" d="M17.5805515,15.7396017 C17.5805515,16.9652288 16.8252849,17.9567627 15.8932169,17.9567627 L1.72400735,17.9567627 C0.792711397,17.9567627 0.0374448529,16.9652288 0.0374448529,15.7396017 L0.0374448529,2.33800847 C0.0374448529,1.1129661 0.792711397,0.120652542 1.72400735,0.120652542 L15.8932169,0.120652542 C16.8252849,0.120652542 17.5805515,1.1129661 17.5805515,2.33800847 L17.5805515,15.7396017 Z"/>
    <polygon id="c" points=".026 4.926 1.614 2.342 3.838 6.218 10.985 .082 12.573 2.827 3.519 8.641"/>
  </defs>
  <g fill="none" fill-rule="evenodd">
    <mask id="b" fill="white">
      <use xlink:href="#a"/>
    </mask>
    <polygon fill="#E36433" points=".035 17.971 17.591 17.971 17.591 .101 .035 .101" mask="url(#b)"/>
    <g transform="translate(2.51 4.678)">
      <mask id="d" fill="white">
        <use xlink:href="#c"/>
      </mask>
      <polygon fill="#FFFFFE" points=".004 8.662 12.581 8.662 12.581 .078 .004 .078" mask="url(#d)"/>
    </g>
  </g>
</svg>
