<svg xmlns="http://www.w3.org/2000/svg" width="14" height="14" viewBox="0 0 14 14" xmlns:xlink="http://www.w3.org/1999/xlink">
  <defs>
    <path id="a" d="M10.585 11.9994C8.821 10.235 7.057 8.4707 5.293 6.7066c-.1105-.1182-.197-.2495-.2462-.4046-.0275-.0868-.043-.1774-.0462-.2684-.0127-.3697.1868-.7245.5093-.9058.1416-.0798.2944-.1167.4556-.1278.0688 0 .0683 0 .1364.0047.137.0188.2666.055.388.123.0603.034.1136.0745.167.118 1.8404 1.7188 3.628 3.492 5.398 5.2837 1.746-1.7457 3.492-3.4913 5.2378-5.237.0502-.047.1007-.0912.1585-.129.1362-.0894.286-.1367.4462-.1587C17.9657 5 17.9653 5 18.034 5c.1614.011.3142.048.456.1278.3016.1695.4976.4918.5094.8375.003.091-.0063.1824-.0278.271-.0386.158-.116.295-.218.4204-.0154.0166-.0304.0338-.0465.05-1.749 1.75-3.4986 3.4998-5.2484 5.2494 1.7465 1.782 3.4848 3.5726 5.2487 5.3365.1104.1182.197.2495.246.4046.0415.1303.0557.2688.0417.4048-.0117.1133-.0428.2244-.0917.3272-.1797.378-.589.608-1.0053.565-.1587-.0162-.3128-.071-.4462-.1585-.0508-.0333-.0617-.0442-.1087-.0824-.0165-.0154-.0336-.0304-.05-.0464-1.7644-1.7637-3.5286-3.5278-5.293-5.2922-1.764 1.764-3.5284 3.528-5.2925 5.2922-.0442.0413-.0544.053-.1028.0897-.127.0964-.277.1615-.4343.1886-.4125.071-.8366-.1307-1.0417-.4955-.0558-.0993-.0944-.208-.1138-.3202-.0233-.1347-.0185-.274.014-.4067.0384-.1582.1157-.295.2177-.4205.0155-.0165.0305-.0337.0466-.05 1.7636-1.7644 3.5277-3.5286 5.292-5.2927z"/>
  </defs>
  <use fill-rule="evenodd" xlink:href="#a" transform="translate(-5 -5)"/>
</svg>
