<svg xmlns="http://www.w3.org/2000/svg" xmlns:xlink="http://www.w3.org/1999/xlink" width="22" height="19" viewBox="0 0 22 19">
  <defs>
    <path id="a" d="M14.6418624,3.61124158 C14.7732804,4.0706846 15.7134603,4.03035403 16.0408995,4.33568083 C16.4545926,4.72132007 16.7584021,5.62346951 16.7610794,6.24423479 C16.762709,6.598028 16.7805185,6.95216988 16.7238307,7.37290951 C16.7105608,7.4710046 16.6798307,8.20602045 16.6338519,8.66255781 C16.6117354,8.88152837 16.6525926,8.94208234 16.831037,9.00391479 C17.0340423,9.07446422 17.1053968,9.28320687 17.037418,9.57481894 C16.8928466,10.1960491 16.7093968,11.682585 16.474381,12.082985 C16.4125714,12.1882861 16.2961693,12.2683661 16.2003704,12.2889382 C16.034381,12.352514 15.9282222,12.3456567 15.8644339,12.601471 C15.6455979,13.5264008 15.4609841,14.3424265 15.264381,14.9451767 C15.1344762,15.1558952 15.0380952,15.2240038 14.8871217,15.3204718 C14.780963,15.3884642 14.5869206,15.5674529 14.571672,15.6978589 C14.5329101,16.0324748 14.6384868,16.4389186 14.9890899,16.594662 C17.200381,17.3597805 19.8322328,18.4320854 21.5622011,18.8066831 C22.7401905,19.0618001 22.9511111,20.249634 22.9511111,21.3371646 L1,21.3371646 C1,20.249634 1.21092063,19.0618001 2.38891005,18.8066831 C4.11887831,18.4320854 6.75049735,17.3597805 8.96190476,16.594662 C9.31262434,16.4389186 9.41808466,16.0324748 9.37920635,15.6978589 C9.36419048,15.5674529 9.17003175,15.3884642 9.06375661,15.3204718 C8.91289947,15.2240038 8.81651852,15.1558952 8.68649735,14.9451767 C8.49012698,14.3424265 8.30528042,13.5264008 8.08656085,12.601471 C8.02277249,12.3456567 7.91661376,12.352514 7.75062434,12.2889382 C7.6548254,12.2683661 7.53842328,12.1882861 7.47673016,12.082985 C7.24171429,11.682585 7.05814815,10.1960491 6.91357672,9.57481894 C6.84559788,9.28320687 6.91695238,9.07446422 7.11984127,9.00391479 C7.29840212,8.94208234 7.33925926,8.88152837 7.31714286,8.66255781 C7.27116402,8.20602045 7.24043386,7.4710046 7.22728042,7.37290951 C7.17047619,6.95216988 7.15534392,6.5962846 7.18991534,6.24423479 C7.2482328,5.65124762 7.53155556,5.02746045 7.96480423,4.68645215 C8.8264127,4.00792234 10.0670265,3.48792536 11.2022963,3.21572309 C11.6351958,3.11181668 12.3022963,3.01500007 12.9279577,3.00244762 C13.4582857,2.99198724 14.4633016,2.98710573 14.6418624,3.61124158"/>
  </defs>
  <g fill="none" fill-rule="evenodd" transform="translate(-1 -3)">
    <use fill="#0B0B0B" xlink:href="#a"/>
  </g>
</svg>
