<svg xmlns="http://www.w3.org/2000/svg" xmlns:xlink="http://www.w3.org/1999/xlink" width="23" height="14" viewBox="0 0 23 14">
  <defs>
    <path id="a" d="M14,19 L13,19 L16.161192,19 C16.4473643,19 16.1112446,17.2753011 15.9964844,17.1239037 C15.7842928,16.8438231 15.5343858,16.6254091 15.2483774,16.5344581 C14.9441607,16.4376334 14.552586,16.3288772 14.1242664,16.2043934 C14.4139371,16.0974094 14.699639,15.9931865 14.9752251,15.896465 C15.2014828,15.7945452 15.2695178,15.5285649 15.2444364,15.3095893 C15.2347493,15.2242505 15.1094928,15.1071187 15.0409322,15.0626239 C14.9436106,14.9994944 14.8814329,14.9549235 14.7975531,14.8170275 C14.6708698,14.4225825 14.5516209,13.8885683 14.4105196,13.2832861 C14.3693682,13.115879 14.3008826,13.1203665 14.1937988,13.0787619 C14.1319966,13.0652994 14.0569028,13.0128943 14.0171031,12.9439844 C13.8654887,12.6819591 13.7470657,11.7091571 13.6537992,11.3026187 C13.6099444,11.1117852 13.6559769,10.9751822 13.7868654,10.9290141 C13.9020593,10.8885504 13.9284173,10.8489233 13.9141495,10.7056271 C13.8844874,10.4068651 13.8646626,9.9258643 13.856177,9.86167001 C13.8195312,9.58633435 13.809769,9.35343992 13.8320719,9.12305546 C13.8696939,8.7349995 14.0524723,8.32678775 14.3319714,8.10362895 C14.8878159,7.65959314 15.6881658,7.3193026 16.4205558,7.14117107 C16.6998297,7.07317381 17.1301923,7.00981618 17.5338216,7.00160174 C17.875949,6.99475638 18.5243091,6.99156188 18.639503,7.40000181 C18.7242839,7.70066532 19.3308167,7.67427264 19.5420556,7.87408115 C19.808939,8.12644683 20.0049338,8.71682126 20.006661,9.12305546 C20.0077123,9.35458081 20.0192017,9.58633435 19.982631,9.86167001 C19.9740703,9.9258643 19.9542455,10.4068651 19.9245835,10.7056271 C19.9103156,10.8489233 19.9366736,10.8885504 20.0517924,10.9290141 C20.182756,10.9751822 20.2287885,11.1117852 20.1849337,11.3026187 C20.0916672,11.7091571 19.9733194,12.6819591 19.8217049,12.9439844 C19.7818301,13.0128943 19.7067363,13.0652994 19.6449341,13.0787619 C19.5378503,13.1203665 19.4693647,13.115879 19.4282133,13.2832861 C19.287037,13.8885683 19.1679382,14.4225825 19.0411047,14.8170275 C18.9573,14.9549235 18.8951223,14.9994944 18.7977256,15.0626239 C18.7292401,15.1071187 18.6040587,15.2242505 18.5942214,15.3095893 C18.5692152,15.5285649 18.6373253,15.7945452 18.8635078,15.896465 C20.2900651,16.3971652 21.9879363,17.0988909 23.1039806,17.3440309 C23.86393,17.5109817 24,18.2883105 24,19 L14,19 L15,19 C14.9774583,18.7957331 14.9496027,18.3002907 14.8338088,18.1541139 C14.6197059,17.8836913 14.3675478,17.6728088 14.0789632,17.584994 C12.8791982,17.2195973 10.3328476,16.6782084 9.4892924,15.74197 C9.26413292,15.4920285 9.10848404,15.1859 9.28041777,14.8944526 C9.40041141,14.6912732 9.61022885,14.6284706 9.9513536,14.2762144 C10.364646,13.8494651 10.1274871,14.2531959 10.1110308,14.3652074 C10.035092,14.8834871 10.9993266,14.376626 11.3116529,14.0946036 C11.7117459,13.7334662 11.2728263,14.6225801 12.6148694,13.5298336 C13.5643619,12.7564469 12.2223188,13.1338966 11.995188,10.948585 C11.6046087,7.19112512 10.8337354,6.18220608 9.50454874,5.36577281 C9.20525033,5.18035573 8.80464302,5.04006949 8.51057291,5.00545105 C7.96948733,4.94174225 8.42580598,5.455672 8.01011375,5.54656805 C8.00659965,5.54584306 8.00342839,5.54502744 8.00017142,5.5441212 C7.99674303,5.54502744 7.99340035,5.54584306 7.99005767,5.54656805 C7.57445115,5.455672 8.0307698,4.94174225 7.48968422,5.00545105 C7.19544269,5.04006949 6.7950068,5.18035573 6.49570839,5.36577281 C5.16635036,6.18220608 4.39564839,7.19112512 4.00506912,10.948585 C3.77793831,13.1338966 2.43572382,12.7564469 3.38538771,13.5298336 C4.72725937,14.6225801 4.28851122,13.7334662 4.68860428,14.0946036 C5.00093056,14.376626 5.96499369,14.8834871 5.88922629,14.3652074 C5.87277002,14.2531959 5.63561117,13.8494651 6.04890353,14.2762144 C6.39002828,14.6284706 6.59984572,14.6912732 6.71966794,14.8944526 C6.89177309,15.1859 6.7360385,15.4920285 6.5107076,15.74197 C5.66723806,16.6782084 3.12088746,17.2195973 1.92112255,17.584994 C1.63245216,17.6728088 1.38037982,17.8836913 1.16627689,18.1541139 C1.05056875,18.3002907 1.02262737,18.7957331 1,19 L14,19 Z"/>
  </defs>
  <g fill="none" fill-rule="evenodd" transform="translate(-1 -5)">
    <use fill="#000000" xlink:href="#a"/>
  </g>
</svg>
