<svg xmlns="http://www.w3.org/2000/svg" xmlns:xlink="http://www.w3.org/1999/xlink" width="200" height="44" viewBox="0 0 200 44">
  <defs>
    <path id="a" d="M18.5457353,23.1079237 C17.3266378,23.6737379 14.9393454,24.3344038 12.0840427,24.3344038 C4.96903979,24.3344038 0.335077855,19.7145036 0.335077855,12.598063 C0.335077855,5.71600484 5.01591407,0.343150726 13.0207958,0.343150726 C15.1279412,0.343150726 17.2812284,0.814113196 18.5911448,1.42680387 L17.5610092,5.76251513 C16.6257209,5.33916162 15.2681978,4.86783293 13.2079268,4.86783293 C8.80833622,4.86783293 6.18630623,8.11989104 6.23318051,12.3146065 C6.23318051,17.0282597 9.27524798,19.7145036 13.2079268,19.7145036 C15.2198587,19.7145036 16.6257209,19.2904177 17.749605,18.8201877 L18.5457353,23.1079237 Z"/>
    <polygon id="c" points=".206 33.703 6.011 33.703 6.011 .238 .206 .238"/>
    <path id="e" d="M5.5699827,13.9648063 C5.70914072,18.1130115 8.94126874,19.9045732 12.5919694,19.9045732 C15.2605075,19.9045732 17.1801557,19.5266314 18.912673,18.8663317 L19.7553114,22.8735412 C17.7887889,23.6741041 15.0733766,24.3336713 11.7958391,24.3336713 C4.40105536,24.3336713 0.0465080738,19.7152361 0.0465080738,12.691816 C0.0465080738,6.32869552 3.88433968,0.343150726 11.1872059,0.343150726 C18.6317935,0.343150726 21.0194521,6.46969128 21.0194521,11.5140436 C21.0194521,12.5976967 20.9260698,13.4469673 20.8323212,13.9648063 L5.5699827,13.9648063 Z M15.5871626,9.91145278 C15.6351355,7.791023 14.6987486,4.30275121 10.860917,4.30275121 C7.30103518,4.30275121 5.80398789,7.55480932 5.5699827,9.91145278 L15.5871626,9.91145278 Z"/>
    <path id="g" d="M19.3751903,18.3008838 C19.3751903,20.3751695 19.4685727,22.4022125 19.7029441,23.8150999 L14.5057584,23.8150999 L14.132229,21.2713166 L13.9908737,21.2713166 C12.587575,23.0614134 10.199184,24.3344038 7.24976644,24.3344038 C2.66267878,24.3344038 0.0875230681,20.9874939 0.0875230681,17.4995884 C0.0875230681,11.7019159 5.18986159,8.78019068 13.6173443,8.82706719 L13.6173443,8.44985775 C13.6173443,6.9413862 13.0087111,4.44301453 8.98191753,4.44301453 C6.73451557,4.44301453 4.39373126,5.15165557 2.84980969,6.14045702 L1.72482699,2.36909504 C3.41193483,1.3323184 6.36025375,0.342784504 9.96517878,0.342784504 C17.2695098,0.342784504 19.3751903,5.00919492 19.3751903,10.0063045 L19.3751903,18.3008838 Z M13.7576009,12.598063 C9.68429931,12.5032113 5.79959343,13.3986259 5.79959343,16.8872639 C5.79959343,19.1486895 7.24976644,20.1876634 9.07566609,20.1876634 C11.3684775,20.1876634 13.0552191,18.6780932 13.57047,17.0286259 C13.7107266,16.6034413 13.7576009,16.132845 13.7576009,15.7556356 L13.7576009,12.598063 Z"/>
    <path id="i" d="M0.237667243,8.26198547 C0.237667243,5.15092312 0.190792964,2.93637409 0.0505363322,0.862088378 L5.06022491,0.862088378 L5.24625721,5.24577482 L5.43338812,5.24577482 C6.55873702,1.99371671 9.22764129,0.344249395 11.6603431,0.344249395 C12.2228345,0.344249395 12.550222,0.390393462 13.0182324,0.484146489 L13.0182324,5.95221852 C12.550222,5.85809927 12.0353374,5.7636138 11.3329556,5.7636138 C8.57030277,5.7636138 6.69752884,7.55554177 6.18264418,10.146934 C6.08926182,10.6658717 5.99514706,11.2785623 5.99514706,11.938862 L5.99514706,23.8154661 L0.237667243,23.8154661 L0.237667243,8.26198547 Z"/>
    <path id="k" d="M9.00132641,0.0966828087 L9.00132641,5.98810835 L14.4775606,5.98810835 L14.4775606,10.3238196 L9.00132641,10.3238196 L9.00132641,20.4583021 C9.00132641,23.2397639 9.74948385,24.701359 11.9507439,24.701359 C13.0266551,24.701359 13.5411736,24.6068735 14.1970473,24.4175363 L14.2915283,28.8491979 C13.4477912,29.178066 11.9507439,29.4618886 10.1248443,29.4618886 C8.01769896,29.4618886 6.24013841,28.7063711 5.16386101,27.5285987 C3.94439735,26.2094643 3.38410323,24.1355448 3.38410323,21.1186017 L3.38410323,10.3238196 L0.105467128,10.3238196 L0.105467128,5.98810835 L3.38410323,5.98810835 L3.38410323,1.74724879 L9.00132641,0.0966828087 Z"/>
    <path id="m" d="M0.463982122,8.26198547 C0.463982122,5.15092312 0.416741638,2.93637409 0.276485006,0.862088378 L5.28653979,0.862088378 L5.4736707,5.24577482 L5.65933679,5.24577482 C6.78322088,1.99371671 9.45322376,0.344249395 11.8877566,0.344249395 C12.448417,0.344249395 12.7758045,0.390393462 13.2445473,0.484146489 L13.2445473,5.95221852 C12.7758045,5.85809927 12.261286,5.7636138 11.5600029,5.7636138 C8.79771626,5.7636138 6.9231113,7.55554177 6.40932526,10.146934 C6.31630911,10.6658717 6.22292676,11.2785623 6.22292676,11.938862 L6.22292676,23.8154661 L0.463982122,23.8154661 L0.463982122,8.26198547 Z"/>
    <path id="o" d="M6.76710784,3.24033898 C6.76710784,4.98429177 5.50369954,6.35140133 3.49030277,6.35140133 C1.57175317,6.35140133 0.306147636,4.98429177 0.306147636,3.24033898 C0.306147636,1.44987591 1.61679642,0.0824001211 3.53717705,0.0824001211 C5.50369954,0.0824001211 6.72059977,1.44987591 6.76710784,3.24033898 Z M0.634267589,32.6055448 L6.43825548,32.6055448 L6.43825548,9.6510684 L0.634267589,9.6510684 L0.634267589,32.6055448 Z"/>
    <path id="q" d="M0.273921569,8.49710048 C0.273921569,5.48015738 0.180905421,3.0297609 0.0860582468,0.860989709 L5.14445213,0.860989709 L5.42423299,4.39687046 L5.51688293,4.39687046 C7.20289216,1.80437954 9.87143022,0.343150726 13.3364648,0.343150726 C18.57906,0.343150726 22.9321424,4.86710048 22.9321424,12.0329812 C22.9321424,20.3279268 17.7349567,24.3336713 12.5392359,24.3336713 C9.68466551,24.3336713 7.2955421,23.1086562 6.12588235,21.2702179 L6.03140138,21.2702179 L6.03140138,33.1486531 L0.273921569,33.1486531 L0.273921569,8.49710048 Z M6.03140138,14.2002875 C6.03140138,14.7661017 6.07974048,15.2850393 6.21999712,15.8028783 C6.78175606,18.1595218 8.8416609,19.8558656 11.2750952,19.8558656 C14.9272607,19.8558656 17.0805479,16.7935109 17.0805479,12.2680962 C17.0805479,8.21364407 15.1143916,4.91434322 11.4168166,4.91434322 C9.02915802,4.91434322 6.82826413,6.65866223 6.2668714,9.20427663 C6.12588235,9.67487288 6.03140138,10.194543 6.03140138,10.6658717 L6.03140138,14.2002875 Z"/>
    <path id="s" d="M33.3554441,29.5728541 C33.3554441,31.8756628 31.9224827,33.738638 30.1540773,33.738638 L3.27094579,33.738638 C1.50400519,33.738638 0.0710438293,31.8756628 0.0710438293,29.5728541 L0.0710438293,4.39284201 C0.0710438293,2.09113196 1.50400519,0.226691889 3.27094579,0.226691889 L30.1540773,0.226691889 C31.9224827,0.226691889 33.3554441,2.09113196 33.3554441,4.39284201 L33.3554441,29.5728541 Z"/>
    <polygon id="u" points=".049 9.256 3.063 4.401 7.282 11.683 20.842 .154 23.855 5.312 6.677 16.235"/>
  </defs>
  <g fill="none" fill-rule="evenodd">
    <g transform="translate(38.818 9.888)">
      <mask id="b" fill="white">
        <use xlink:href="#a"/>
      </mask>
      <polygon fill="#064E8B" points=".315 24.361 18.596 24.361 18.596 .322 .315 .322" mask="url(#b)"/>
    </g>
    <g transform="translate(60.424)">
      <mask id="d" fill="white">
        <use xlink:href="#c"/>
      </mask>
      <polygon fill="#064E8B" points=".198 33.722 6.042 33.722 6.042 .234 .198 .234" mask="url(#d)"/>
    </g>
    <g transform="translate(70.311 9.888)">
      <mask id="f" fill="white">
        <use xlink:href="#e"/>
      </mask>
      <polygon fill="#064E8B" points=".022 24.361 21.028 24.361 21.028 .322 .022 .322" mask="url(#f)"/>
    </g>
    <g transform="translate(93.382 9.888)">
      <mask id="h" fill="white">
        <use xlink:href="#g"/>
      </mask>
      <polygon fill="#064E8B" points=".066 24.361 19.709 24.361 19.709 .322 .066 .322" mask="url(#h)"/>
    </g>
    <g transform="translate(117.552 9.888)">
      <mask id="j" fill="white">
        <use xlink:href="#i"/>
      </mask>
      <polygon fill="#064E8B" points=".022 23.834 13.03 23.834 13.03 .322 .022 .322" mask="url(#j)"/>
    </g>
    <g transform="translate(132.2 4.76)">
      <mask id="l" fill="white">
        <use xlink:href="#k"/>
      </mask>
      <polygon fill="#064E8B" points=".095 29.488 14.509 29.488 14.509 .088 .095 .088" mask="url(#l)"/>
    </g>
    <g transform="translate(149.412 9.888)">
      <mask id="n" fill="white">
        <use xlink:href="#m"/>
      </mask>
      <polygon fill="#064E8B" points=".242 23.834 13.249 23.834 13.249 .322 .242 .322" mask="url(#n)"/>
    </g>
    <g transform="translate(164.792 1.099)">
      <mask id="p" fill="white">
        <use xlink:href="#o"/>
      </mask>
      <polygon fill="#064E8B" points=".286 32.623 6.789 32.623 6.789 .059 .286 .059" mask="url(#p)"/>
    </g>
    <g transform="translate(176.145 9.888)">
      <mask id="r" fill="white">
        <use xlink:href="#q"/>
      </mask>
      <polygon fill="#064E8B" points=".051 33.15 22.946 33.15 22.946 .322 .051 .322" mask="url(#r)"/>
    </g>
    <mask id="t" fill="white">
      <use xlink:href="#s"/>
    </mask>
    <polygon fill="#E46433" points=".066 33.766 33.376 33.766 33.376 .19 .066 .19" mask="url(#t)"/>
    <g transform="translate(4.76 8.79)">
      <mask id="v" fill="white">
        <use xlink:href="#u"/>
      </mask>
      <polygon fill="#FFFFFF" points=".007 16.275 23.869 16.275 23.869 .146 .007 .146" mask="url(#v)"/>
    </g>
  </g>
</svg>
