<svg xmlns="http://www.w3.org/2000/svg" width="19" height="12" viewBox="0 0 19 12">
  <g fill="none" fill-rule="evenodd">
    <path fill="#93222E" d="M4.14941463,6.79836735 C4.14941463,7.24677551 4.4935,7.61020408 4.9177561,7.61020408 C5.3420122,7.61020408 5.68586585,7.24677551 5.68586585,6.79836735 C5.68586585,6.34995918 5.3420122,5.98628571 4.9177561,5.98628571 C4.4935,5.98628571 4.14941463,6.34995918 4.14941463,6.79836735"/>
    <path fill="#0A9C4C" d="M13.3998659,6.79836735 C13.3998659,7.24677551 13.7437195,7.61020408 14.1679756,7.61020408 C14.5924634,7.61020408 14.9363171,7.24677551 14.9363171,6.79836735 C14.9363171,6.34995918 14.5924634,5.98628571 14.1679756,5.98628571 C13.7437195,5.98628571 13.3998659,6.34995918 13.3998659,6.79836735"/>
    <path fill="#1C1B19" d="M3.80532927 7.97387755C3.50828049 7.65991837 3.34469512 7.24236735 3.34469512 6.79836735 3.34469512 6.35412245 3.50828049 5.93681633 3.80532927 5.62285714 4.10260976 5.30865306 4.49743902 5.1357551 4.9177561 5.1357551 5.78503659 5.1357551 6.49058537 5.88171429 6.49058537 6.79836735 6.49058537 7.71502041 5.78503659 8.46073469 4.9177561 8.46073469 4.49743902 8.46073469 4.10260976 8.28783673 3.80532927 7.97387755zM3.31387805 5.10318367C2.88545122 5.556 2.64957317 6.15795918 2.64957317 6.79836735 2.64957317 7.43877551 2.88545122 8.04073469 3.31387805 8.49330612 3.74230488 8.94612245 4.31184146 9.19542857 4.9177561 9.19542857 6.16828049 9.19542857 7.18570732 8.12008163 7.18570732 6.79836735 7.18570732 5.47640816 6.16828049 4.40106122 4.9177561 4.40106122 4.31184146 4.40106122 3.74230488 4.65036735 3.31387805 5.10318367zM13.0557805 7.97387755C12.7587317 7.65991837 12.5951463 7.24236735 12.5951463 6.79836735 12.5951463 6.35412245 12.7587317 5.93681633 13.0557805 5.62285714 13.3528293 5.30865306 13.7478902 5.1357551 14.1679756 5.1357551 15.0354878 5.1357551 15.7410366 5.88171429 15.7410366 6.79836735 15.7410366 7.71502041 15.0354878 8.46073469 14.1679756 8.46073469 13.7478902 8.46073469 13.3528293 8.28783673 13.0557805 7.97387755zM12.5643293 5.10318367C12.1359024 5.556 11.9000244 6.15795918 11.9000244 6.79836735 11.9000244 7.43877551 12.1359024 8.04073469 12.5643293 8.49330612 12.9927561 8.94612245 13.5622927 9.19542857 14.1679756 9.19542857 15.4187317 9.19542857 16.4361585 8.12008163 16.4361585 6.79836735 16.4361585 5.47640816 15.4187317 4.40106122 14.1679756 4.40106122 13.5622927 4.40106122 12.9927561 4.65036735 12.5643293 5.10318367z"/>
    <path fill="#1C1B19" d="M14.1679756,10.8078367 C12.076122,10.8078367 10.3742317,9.00930612 10.3742317,6.79836735 C10.3742317,4.58742857 12.076122,2.78865306 14.1679756,2.78865306 C16.2598293,2.78865306 17.9617195,4.58742857 17.9617195,6.79836735 C17.9617195,9.00930612 16.2598293,10.8078367 14.1679756,10.8078367 Z M4.9177561,10.8078367 C2.82590244,10.8078367 1.1240122,9.00930612 1.1240122,6.79836735 C1.1240122,4.58742857 2.82590244,2.78865306 4.9177561,2.78865306 C7.00937805,2.78865306 8.71126829,4.58742857 8.71126829,6.79836735 C8.71126829,9.00930612 7.00937805,10.8078367 4.9177561,10.8078367 Z M17.8229268,3.64604082 C18.000878,3.08571429 18.2731341,2.42571429 18.6491951,2.0282449 L15.5494146,2.0282449 C15.4982073,2.01159184 15.4446829,2.00032653 15.3925488,1.98538776 C15.2240976,1.70620408 14.071122,0.133714286 9.46292683,0.133714286 C4.40568293,0.133714286 3.50943902,2.0282449 3.50943902,2.0282449 L0.276426829,2.0282449 C0.688865854,2.46416327 0.975487805,3.21428571 1.15089024,3.804 C0.555170732,4.63910204 0.197182927,5.67404082 0.197182927,6.79836735 C0.197182927,9.54930612 2.3147561,11.7874286 4.9177561,11.7874286 C6.36059756,11.7874286 7.65259756,11.0980408 8.51918293,10.0160816 L9.59082927,11.6022857 L10.5158049,9.95461224 C11.3821585,11.0723265 12.6973293,11.7874286 14.1679756,11.7874286 C16.7707439,11.7874286 18.8885488,9.54930612 18.8885488,6.79836735 C18.8885488,5.6035102 18.4881585,4.50587755 17.8229268,3.64604082 Z"/>
    <path fill="#FAD77D" d="M9.75093902,0.708979592 C12.9837195,0.708979592 14.1999512,2.12963265 14.1999512,2.12963265 C14.1999512,2.12963265 10.7431098,1.52081633 9.59082927,6.02032653 C8.43854878,1.52081633 4.98170732,2.12963265 4.98170732,2.12963265 C4.98170732,2.12963265 6.19817073,0.708979592 9.43095122,0.708979592 L9.75093902,0.708979592"/>
  </g>
</svg>
