<svg xmlns="http://www.w3.org/2000/svg" xmlns:xlink="http://www.w3.org/1999/xlink" width="17" height="14" viewBox="0 0 17 14">
  <defs>
    <path id="a" d="M10.0563944,5.00090997 C10.2112944,5.01570997 10.3570944,5.05250997 10.4933944,5.13000997 C10.8087944,5.30940997 11.0056944,5.65560997 10.9987944,6.01840997 C10.9967944,6.12050997 10.9790944,6.22230997 10.9463944,6.31910997 C10.8961944,6.46770997 10.8117944,6.59210997 10.7060944,6.70630997 L6.41319441,10.99921 L18.9989944,10.99921 L19.0754944,11.00211 C19.1524944,11.01101 19.2264944,11.02231 19.3006944,11.04581 C19.4714944,11.09981 19.6263944,11.20021 19.7454944,11.33391 C19.8134944,11.41021 19.8696944,11.49691 19.9114944,11.59011 C20.0821944,11.97091 19.9930944,12.43031 19.6923944,12.71971 C19.6187944,12.79061 19.5342944,12.85001 19.4426944,12.89541 C19.3021944,12.96501 19.1544944,12.99321 18.9989944,12.99921 L6.41319441,12.99921 L10.7060944,17.29211 L10.7580944,17.34831 C10.8548944,17.47021 10.9294944,17.60071 10.9680944,17.75271 C10.9932944,17.85181 11.0031944,17.95461 10.9972944,18.05661 C10.9733944,18.47331 10.6825944,18.83991 10.2823944,18.95821 C10.1843944,18.98721 10.0819944,19.00101 9.97979441,18.99901 C9.80079441,18.99561 9.62379441,18.94331 9.47159441,18.84881 C9.40549441,18.80781 9.34869441,18.75901 9.29189441,18.70631 C7.29189441,16.70631 5.29159441,14.70651 3.29189441,12.70631 C3.27729441,12.69171 3.26259441,12.67631 3.24929441,12.66041 C3.05179441,12.44751 2.96899441,12.13731 3.01039441,11.85311 C3.01939441,11.79121 3.03249441,11.72761 3.05509441,11.66891 C3.09129441,11.57481 3.13619441,11.49061 3.19299441,11.40731 C3.22109441,11.36601 3.25809441,11.32851 3.29189441,11.29211 L9.29189441,5.29210997 C9.40609441,5.18630997 9.53049441,5.10190997 9.67909441,5.05180997 C9.75279441,5.02690997 9.82659441,5.01410997 9.90329441,5.00380997 C9.98039441,4.99940997 9.97979441,4.99940997 10.0563944,5.00090997 Z"/>
  </defs>
  <g fill="none" fill-rule="evenodd" transform="translate(-3 -5)">
    <use fill="#000000" xlink:href="#a"/>
  </g>
</svg>
