<svg xmlns="http://www.w3.org/2000/svg" width="18" height="18" viewBox="0 0 18 18">
  <g fill="#000000">
    <path d="M9,17.8846154 C11.2846154,17.8846154 13.5461538,17.0076923 15.2769231,15.2769231 C18.7384615,11.8153846 18.7384615,6.18461538 15.2769231,2.72307692 C15.2769231,2.72307692 15.2769231,2.72307692 15.2769231,2.72307692 C11.8153846,-0.738461538 6.18461538,-0.738461538 2.72307692,2.72307692 C-0.738461538,6.18461538 -0.738461538,11.8153846 2.72307692,15.2769231 C4.45384615,17.0076923 6.71538462,17.8846154 9,17.8846154 Z M3.53076923,3.53076923 C5.03076923,2.03076923 7.01538462,1.26923077 9,1.26923077 C10.9846154,1.26923077 12.9692308,2.03076923 14.4692308,3.53076923 C17.4923077,6.55384615 17.4923077,11.4461538 14.4692308,14.4692308 C11.4461538,17.4923077 6.55384615,17.4923077 3.53076923,14.4692308 C0.507692308,11.4461538 0.507692308,6.55384615 3.53076923,3.53076923 Z"/>
    <path d="M5.88461538,13.0384615 C6.04615385,13.0384615 6.18461538,12.9692308 6.3,12.8538462 L9.3,9.6 C9.39230769,9.48461538 9.46153846,9.34615385 9.46153846,9.20769231 L9.46153846,4.84615385 C9.46153846,4.52307692 9.20769231,4.26923077 8.88461538,4.26923077 C8.56153846,4.26923077 8.30769231,4.52307692 8.30769231,4.84615385 L8.30769231,9 L5.44615385,12.0692308 C5.23846154,12.3 5.23846154,12.6692308 5.46923077,12.8769231 C5.58461538,12.9923077 5.74615385,13.0384615 5.88461538,13.0384615 Z"/>
  </g>
</svg>
