<svg xmlns="http://www.w3.org/2000/svg" width="19" height="8" viewBox="0 0 19 8">
  <path fill="#FFFFFF" fill-rule="evenodd" d="M6.44,11 L6.44,3.3 L8.354,3.3 C9.564,3.3 10.158,3.971 10.158,5.203 L10.158,9.097 C10.158,10.329 9.564,11 8.354,11 L6.44,11 Z M8.332,4.4 L7.65,4.4 L7.65,9.9 L8.332,9.9 C8.717,9.9 8.948,9.702 8.948,9.152 L8.948,5.148 C8.948,4.598 8.717,4.4 8.332,4.4 Z M12.638,4.4 L12.638,6.545 L14.299,6.545 L14.299,7.645 L12.638,7.645 L12.638,9.9 L14.728,9.9 L14.728,11 L11.428,11 L11.428,3.3 L14.728,3.3 L14.728,4.4 L12.638,4.4 Z M18.66,3.3 L19.892,11 L18.671,11 L18.462,9.603 L16.977,9.603 L16.768,11 L15.657,11 L16.889,3.3 L18.66,3.3 Z M17.714,4.664 L17.131,8.558 L18.297,8.558 L17.714,4.664 Z M20.953,11 L20.953,3.3 L22.163,3.3 L22.163,9.9 L24.154,9.9 L24.154,11 L20.953,11 Z" transform="translate(-6 -3)"/>
</svg>
