<svg xmlns="http://www.w3.org/2000/svg" width="47" height="48" viewBox="0 0 47 48">
  <path fill="#E2E2E2" fill-rule="evenodd" d="M200.836667,20.1906667 L211.39,28.2606667 C212.79,29.334 213.526667,31.584 213.02,33.2473333 L209.056667,46.3473333 C208.553333,48.014 209.283333,48.5073333 210.68,47.4273333 L220.983333,39.4973333 C222.36,38.4206667 224.653333,38.4173333 226.056667,39.4873333 L236.45,47.4273333 C237.823333,48.5073333 238.56,48.0106667 238.056667,46.3473333 L234.016667,33.2006667 C233.513333,31.5373333 234.23,29.294 235.623333,28.224 L246.06,20.1906667 C247.46,19.1173333 247.036667,18.554 245.266667,18.554 L231.84,18.554 C230.076667,18.554 229.023333,16.8806667 228.493333,15.2173333 L224.376667,1.794 C223.86,0.130666667 223.03,0.130666667 222.53,1.80066667 L218.46,15.2106667 C217.953333,16.8806667 216.833333,18.554 215.056667,18.554 L201.633333,18.554 C199.853333,18.554 199.44,19.114 200.836667,20.1906667" transform="translate(-200)"/>
</svg>
