<svg xmlns="http://www.w3.org/2000/svg" width="14" height="14" viewBox="0 0 14 14">
  <g fill="#56953E" fill-rule="evenodd">
    <path d="M7,14 C3.13400675,14 0,10.8659932 0,7 C0,3.13400675 3.13400675,0 7,0 C10.8659932,0 14,3.13400675 14,7 C14,10.8659932 10.8659932,14 7,14 Z M7,12 C9.76142375,12 12,9.76142375 12,7 C12,4.23857625 9.76142375,2 7,2 C4.23857625,2 2,4.23857625 2,7 C2,9.76142375 4.23857625,12 7,12 Z"/>
    <path d="M7,10 L7,4 C5.34314575,4 4,5.34314575 4,7 C4,8.65685425 5.34314575,10 7,10 Z"/>
  </g>
</svg>
