<svg xmlns:xlink="http://www.w3.org/1999/xlink" width="12" height="13" viewBox="0 0 12 13"><defs><path id="a" d="M14 7.812c0 3.314-2.686 6-6 6s-6-2.686-6-6 2.686-6 6-6 6 2.686 6 6zm-5.235-3.978c-.229 0-.423.081-.582.242-.159.161-.239.356-.239.585 0 .229.081.424.242.585.161.161.354.242.579.242.229 0 .424-.081.585-.242.161-.161.242-.356.242-.585 0-.229-.08-.424-.239-.585-.159-.161-.355-.242-.588-.242zm.349 2.586h-.337l-1.906.309-.073.225.202-.006c.124 0 .221.032.292.096.071.064.107.137.107.219 0 .131-.037.326-.112.585l-.781 2.687c-.064.214-.096.39-.096.528 0 .21.072.383.216.52.144.137.338.205.582.205.637 0 1.239-.493 1.805-1.479l-.191-.112c-.236.364-.439.615-.607.753-.064.056-.127.084-.191.084l-.107-.053-.051-.115c0-.071.032-.221.096-.45l1.153-3.997z"/></defs><g transform="translate(-30 -10) translate(28 9)" fill="none"><mask><use xlink:href="#a"/></mask><use fill="#262626" fill-rule="nonzero" xlink:href="#a"/></g></svg>