<svg xmlns="http://www.w3.org/2000/svg" xmlns:xlink="http://www.w3.org/1999/xlink" width="22" height="22" viewBox="0 0 22 22">
  <defs>
    <path id="a" d="M20.25,1 L3.75,1 C2.23813953,1 1,2.2355814 1,3.75 L1,20.25 C1,21.7618605 2.23813953,23 3.75,23 L12.0946512,23 L12.0946512,15.1106977 L9.45976744,15.1106977 L9.45976744,11.6751163 L12.0946512,11.6751163 L12.0946512,9.95348837 C12.0946512,7.29813953 14.054186,5.22093023 16.5560465,5.22093023 L18.9837209,5.22093023 L18.9837209,9.09906977 L16.8118605,9.09906977 C16.2439535,9.09906977 16.0776744,9.42651163 16.0776744,9.87674419 L16.0776744,11.6751163 L18.9837209,11.6751163 L18.9837209,15.1106977 L16.0776744,15.1106977 L16.0776744,23 L20.25,23 C21.7618605,23 23,21.7618605 23,20.25 L23,3.75 C23,2.2355814 21.7618605,1 20.25,1"/>
  </defs>
  <g fill="none" fill-rule="evenodd" transform="translate(-1 -1)">
    <mask id="b" fill="white">
      <use xlink:href="#a"/>
    </mask>
    <use fill="#FFFFFF" xlink:href="#a"/>
  </g>
</svg>
