<svg xmlns="http://www.w3.org/2000/svg" xmlns:xlink="http://www.w3.org/1999/xlink" width="20" height="21" viewBox="0 0 20 21">
  <defs>
    <path id="a" d="M14.672982,14.8520557 C17.1245954,12.4004407 17.1245948,8.41872206 14.6729939,5.9671211 C12.2213924,3.51551962 8.23967259,3.51551962 5.7880711,5.9671211 C3.33646962,8.41872259 3.33646962,12.4004424 5.78808296,14.8520557 C8.23968174,17.3037389 12.2213833,17.3037389 14.672982,14.8520557 Z M21.7145214,20.5151586 C22.0951595,20.8957968 22.0951595,21.5129332 21.7145214,21.8935714 C21.3338832,22.2742095 20.7167468,22.2742095 20.3361086,21.8935714 L15.3217663,16.879229 C12.091978,19.4265124 7.38935095,19.2102518 4.40965837,16.2304566 C1.19678054,13.0175788 1.19678054,7.80158619 4.40965837,4.58870837 C7.62253619,1.37583054 12.8385288,1.37583054 16.0514066,4.58870837 C19.0311077,7.56840944 19.2473615,12.2710214 16.700168,15.5008053 L21.7145214,20.5151586 Z"/>
  </defs>
  <g fill="none" fill-rule="evenodd" transform="translate(-2 -2)">
    <use fill="#000000" fill-rule="nonzero" xlink:href="#a"/>
  </g>
</svg>
