<svg xmlns="http://www.w3.org/2000/svg" xmlns:xlink="http://www.w3.org/1999/xlink" width="18" height="19" viewBox="0 0 18 19">
  <defs>
    <path id="a" d="M20.9999998,11.7183041 C20.9999998,16.6888669 16.9705626,20.7183041 11.9999998,20.7183041 C7.02943708,20.7183041 2.99999983,16.6888669 2.99999983,11.7183041 C2.99999983,6.74774137 7.02943708,2.71830412 11.9999998,2.71830412 C16.9705626,2.71830412 20.9999998,6.74774137 20.9999998,11.7183041 L20.9999998,11.7183041 Z M13.1469017,5.75187634 C12.8039517,5.75188834 12.5130097,5.87276233 12.2740747,6.11450033 C12.0351337,6.35626032 11.9156647,6.64860831 11.9156675,6.99154431 C11.9156647,7.3345003 12.0365393,7.62684829 12.2782913,7.86858828 C12.5200371,8.11034628 12.8095737,8.23122027 13.1469017,8.23121227 C13.4898441,8.23122027 13.7821917,8.11034628 14.0239453,7.86858828 C14.2656895,7.62684829 14.3865641,7.3345003 14.3865691,6.99154431 C14.3865641,6.64860831 14.2670951,6.35626032 14.0281619,6.11450033 C13.7892193,5.87276233 13.4954661,5.75188834 13.1469017,5.75187634 Z M13.6697547,9.63110824 L13.1637679,9.63111424 L10.3049432,10.0949342 L10.1953128,10.4322602 C10.3133752,10.4266402 10.4145724,10.4238282 10.4989048,10.4238202 C10.6844318,10.4238282 10.8306056,10.4716142 10.9374266,10.5671842 C11.0442442,10.6627662 11.0976538,10.7723962 11.0976556,10.8960742 C11.0976538,11.0928542 11.0414332,11.3852082 10.9289934,11.7731282 L9.75679096,15.8041481 C9.66121516,16.1246081 9.61342756,16.3888481 9.61342796,16.5968681 C9.61342756,16.9116881 9.72165256,17.1717081 9.93810276,17.376928 C10.1545518,17.582128 10.4454938,17.684728 10.8109298,17.684728 C11.7666799,17.684728 12.6690221,16.9454281 13.5179587,15.4668281 L13.2312329,15.2981681 C12.8770385,15.8435081 12.5734469,16.2201881 12.3204567,16.4281881 C12.2248785,16.5125281 12.1293035,16.5546881 12.0337309,16.5546881 C11.9775075,16.5546881 11.9240979,16.5279881 11.8735019,16.4745681 C11.8229007,16.4211681 11.7976013,16.3635481 11.7976039,16.3017081 C11.7976013,16.1948881 11.8453889,15.9700081 11.9409667,15.6270481 L13.6697547,9.63110824 Z"/>
  </defs>
  <g fill="none" fill-rule="evenodd" transform="translate(-3 -2)">
    <use fill="#262626" fill-rule="nonzero" xlink:href="#a"/>
  </g>
</svg>
